<svg width="949.57" height="703.65" xmlns="http://www.w3.org/2000/svg">
 <title>deliveries</title>

 <g>
  <title>background</title>
  <rect fill="none" id="canvas_background" height="602" width="802" y="-1" x="-1"/>
 </g>
 <g>
  <title>Layer 1</title>
  <path id="svg_1" fill="#f2f2f2" d="m683.32,417.43l7.47,-4.61c0.71,-0.45 1.41,-0.93 2.13,-1.38a71.35,71.35 0 0 1 -59.18,-67a70.61,70.61 0 0 1 6.16,-32.5a71.47,71.47 0 0 1 45.81,-39.52l-0.37,29.4l16.15,-32a0.64,0.64 0 0 1 0.2,0a71.34,71.34 0 0 1 74.59,67.94c0.06,1.36 0,2.7 0,4c5.62,-6.41 10.72,-13.28 14.1,-20.81c6.84,-15.25 7,-32.52 6.43,-53.51c-1.08,-41.6 -2.87,-83.51 -5.21,-125.3a71.3,71.3 0 0 1 -63.35,-67.49c-0.1,-2.19 -0.07,-4.34 0,-6.48c0,-0.53 0,-1.07 0.08,-1.6c0.14,-2.07 0.33,-4.12 0.65,-6.14c0,-0.34 0.12,-0.66 0.18,-1q0.44,-2.57 1.05,-5.08c0.16,-0.62 0.31,-1.25 0.48,-1.87c0.5,-1.82 1,-3.61 1.69,-5.38c0.21,-0.59 0.46,-1.16 0.68,-1.74c0.51,-1.3 1.06,-2.58 1.64,-3.85c0.31,-0.67 0.61,-1.33 0.94,-2c0.08,-0.17 0.15,-0.34 0.24,-0.51l0,0a71.29,71.29 0 0 1 83.76,-36.18l-0.48,38.26l16,-31.6a70.9,70.9 0 0 1 34,76.87l0.08,0c-0.11,0.51 -0.27,1 -0.39,1.5c-0.22,0.94 -0.46,1.87 -0.72,2.8c-0.34,1.19 -0.72,2.36 -1.11,3.53c-0.3,0.87 -0.59,1.76 -0.92,2.62c-0.48,1.26 -1,2.49 -1.58,3.72c-0.32,0.72 -0.61,1.45 -1,2.16q-1.37,2.76 -3,5.4c-0.37,0.61 -0.79,1.19 -1.18,1.8c-0.76,1.18 -1.53,2.35 -2.36,3.49c-0.51,0.7 -1.06,1.37 -1.6,2.06c-0.78,1 -1.58,2 -2.41,2.91c-0.59,0.67 -1.19,1.33 -1.81,2c-0.87,0.92 -1.77,1.81 -2.7,2.69c-0.61,0.59 -1.23,1.18 -1.87,1.74c-1.05,0.93 -2.15,1.82 -3.26,2.69c-0.56,0.44 -1.1,0.9 -1.68,1.32q-2.53,1.88 -5.23,3.53c-0.34,0.2 -0.7,0.37 -1,0.57c-1.5,0.89 -3,1.72 -4.61,2.5c-0.67,0.33 -1.37,0.62 -2.06,0.93c-1.29,0.58 -2.59,1.14 -3.92,1.65c-0.77,0.29 -1.56,0.56 -2.35,0.83c-1.31,0.45 -2.64,0.86 -4,1.23c-0.8,0.22 -1.59,0.44 -2.4,0.63c-1.46,0.35 -2.95,0.64 -4.45,0.89c-0.1,0 -0.19,0 -0.29,0.06q1.48,26.44 2.63,52.91a71.3,71.3 0 0 1 99,-30.95l-12.61,34.55l25.94,-24.91a71.14,71.14 0 0 1 23,49.26a69.82,69.82 0 0 1 -1.81,19.65a71.31,71.31 0 0 1 -131.17,19.43c0,1.79 0.13,3.59 0.18,5.38c0.47,18.52 1.06,41.56 -8.17,62.14c-6.25,13.95 -16.32,25.28 -26.27,35.43c-6.47,6.61 -13.18,13 -20.06,19.19a71.34,71.34 0 0 1 -25.76,21.42q-16.95,13.06 -35.1,24.46l-7.35,4.74c-6.79,4.21 -13.75,8.53 -20.58,13c1.2,-0.12 2.39,-0.25 3.61,-0.3a71.37,71.37 0 0 1 70.24,46.43l-44.58,36.29l49,-11.37a71.37,71.37 0 0 1 -102.28,64.25c1.1,1.38 2.21,2.75 3.31,4.12c2.19,2.73 4.37,5.44 6.5,8.13c29,36.73 37.08,71.61 22.71,98.2l-17.46,-9.44c14,-25.88 -7,-59 -20.83,-76.46c-2.09,-2.64 -4.23,-5.3 -6.39,-8c-18.53,-23 -39.53,-49.12 -39,-81.13c0.75,-48.2 47.64,-77.27 85.28,-100.59z"/>
  <ellipse id="svg_2" fill="#3f3d56" ry="21" rx="455.5" cy="682.65" cx="455.5"/>
  <path id="svg_3" stroke-width="4" stroke-miterlimit="10" stroke="#3f3d56" fill="none" d="m823.49,674.82c3,-5.51 -0.4,-12.26 -4.28,-17.18s-8.61,-10 -8.51,-16.29c0.14,-9 9.69,-14.31 17.33,-19.08a84.8,84.8 0 0 0 15.55,-12.51a22.79,22.79 0 0 0 4.79,-6.4c1.57,-3.52 1.53,-7.52 1.43,-11.38q-0.5,-19.26 -1.9,-38.48"/>
  <path id="svg_4" fill="#57b793" d="m862.41,552.82a14.06,14.06 0 0 0 -7,-11.5l-3.14,6.22l0.09,-7.52a14,14 0 0 0 -18,14.12a14,14 0 0 0 28,-1.32l0.05,0z"/>
  <path id="svg_5" fill="#57b793" d="m837.38,647.82a14,14 0 1 1 0.67,-11.3l-8.76,7.13l9.64,-2.24a14,14 0 0 1 -1.55,6.41z"/>
  <path id="svg_6" fill="#57b793" d="m830.45,620.53a14,14 0 0 1 -14.66,-13.37a13.8,13.8 0 0 1 1.21,-6.39a14.06,14.06 0 0 1 9,-7.78l-0.07,5.79l3.18,-6.3l0,0a14,14 0 0 1 1.31,28.05l0.03,0z"/>
  <path id="svg_7" fill="#57b793" d="m864.52,597.82a14,14 0 0 1 -1.32,-28a13.9,13.9 0 0 1 7.52,1.78l-2.48,6.8l5.1,-4.9a14,14 0 0 1 4.54,9.69a13.69,13.69 0 0 1 -0.36,3.86a14,14 0 0 1 -13,10.77z"/>
  <path id="svg_8" opacity="0.1" d="m860.52,556.52c-3.24,0.36 -6.39,1.37 -9.64,1.57s-6.82,-0.58 -8.88,-3.11c-1.11,-1.36 -1.66,-3.08 -2.6,-4.56a10,10 0 0 0 -3.53,-3.33a14,14 0 1 0 26.24,9.32c-0.54,0.02 -1.07,0.06 -1.59,0.11z"/>
  <path id="svg_9" opacity="0.1" d="m864.52,597.82a14,14 0 0 1 -13.35,-20a10.4,10.4 0 0 1 2.82,2.83c1,1.51 1.6,3.25 2.78,4.64c2.18,2.57 5.92,3.41 9.31,3.25s6.65,-1.11 10,-1.42c0.46,0 0.94,-0.08 1.41,-0.09a14,14 0 0 1 -12.97,10.79z"/>
  <path id="svg_10" opacity="0.1" d="m830.45,620.53a14,14 0 0 1 -14.66,-13.37a13.8,13.8 0 0 1 1.21,-6.39a11.52,11.52 0 0 1 3,2.85c1.09,1.54 1.77,3.31 3,4.73c2.37,2.64 6.35,3.57 9.94,3.48s6.82,-0.93 10.28,-1.19a14.06,14.06 0 0 1 -12.77,9.89z"/>
  <path id="svg_11" opacity="0.1" d="m837.38,647.82a14,14 0 0 1 -25.59,-11.5a14.56,14.56 0 0 1 3.08,2.75c1.33,1.63 2.21,3.47 3.76,5c2.87,2.81 7.5,4 11.62,4.08a60.15,60.15 0 0 0 7.13,-0.33z"/>
  <path id="svg_12" fill="#656380" d="m802.33,668.47s11.07,-0.34 14.41,-2.72s17,-5.22 17.87,-1.4s16.65,19 4.14,19.06s-29.06,-2 -32.39,-4s-4.03,-10.94 -4.03,-10.94z"/>
  <path id="svg_13" opacity="0.2" d="m838.97,682.08c-12.5,0.1 -29.06,-2 -32.39,-4c-2.53,-1.54 -3.55,-7.09 -3.88,-9.65l-0.37,0s0.7,8.93 4,11s19.88,4.08 32.39,4c3.61,0 4.86,-1.32 4.79,-3.22c-0.47,1.13 -1.85,1.85 -4.54,1.87z"/>
  <path id="svg_14" stroke-width="4" stroke-miterlimit="10" stroke="#3f3d56" fill="none" d="m194.41,643.97c-7.26,-13.44 1,-29.9 10.44,-41.88s21,-24.44 20.75,-39.71c-0.36,-21.94 -23.64,-34.89 -42.24,-46.52a206.29,206.29 0 0 1 -37.93,-30.49c-4.57,-4.67 -9,-9.65 -11.66,-15.61c-3.84,-8.58 -3.74,-18.33 -3.49,-27.73q1.2,-47 4.64,-93.82"/>
  <path id="svg_15" fill="#57b793" d="m99.55,346.5a34.21,34.21 0 0 1 17.08,-28l7.66,15.15l-0.23,-18.34a34.22,34.22 0 1 1 -24.51,31.22l0,-0.03z"/>
  <path id="svg_16" fill="#57b793" d="m160.57,578.06a34.2,34.2 0 0 0 64.59,-14a33.76,33.76 0 0 0 -2.23,-13.88a34.22,34.22 0 0 0 -64,0.37l21.37,17.38l-23.51,-5.47a33.83,33.83 0 0 0 3.78,15.6z"/>
  <path id="svg_17" fill="#57b793" d="m177.46,511.64a34.22,34.22 0 0 0 10.85,-67.12l0.18,14.09l-7.7,-15.33l-0.09,0a34.22,34.22 0 0 0 -3.19,68.37l-0.05,-0.01z"/>
  <path id="svg_18" fill="#57b793" d="m94.4,456.37a34.22,34.22 0 1 0 -15.12,-64l6,16.57l-12.39,-11.97a34.06,34.06 0 0 0 -11.1,23.62a33.37,33.37 0 0 0 0.87,9.42a34.21,34.21 0 0 0 31.74,26.36z"/>
  <path id="svg_19" opacity="0.1" d="m104.15,355.62c7.9,0.87 15.58,3.32 23.5,3.81s16.63,-1.4 21.64,-7.56c2.7,-3.32 4.05,-7.52 6.33,-11.14a24.28,24.28 0 0 1 8.62,-8.11a34.22,34.22 0 1 1 -64,22.71c1.33,0.06 2.63,0.15 3.91,0.29z"/>
  <path id="svg_20" opacity="0.1" d="m94.4,456.37a34.24,34.24 0 0 0 32.55,-48.8a25.31,25.31 0 0 0 -6.88,6.88c-2.44,3.68 -3.91,7.93 -6.78,11.31c-5.33,6.26 -14.43,8.31 -22.69,7.94s-16.23,-2.73 -24.45,-3.48c-1.14,-0.1 -2.3,-0.18 -3.45,-0.21a34.21,34.21 0 0 0 31.7,26.36z"/>
  <path id="svg_21" opacity="0.1" d="m177.46,511.64a34.21,34.21 0 0 0 32.82,-48.17a27.67,27.67 0 0 0 -7.23,7c-2.66,3.75 -4.32,8.07 -7.43,11.53c-5.77,6.43 -15.47,8.7 -24.22,8.49c-8.47,-0.18 -16.63,-2.26 -25.05,-2.91a34.24,34.24 0 0 0 31.11,24.06z"/>
  <path id="svg_22" opacity="0.1" d="m160.57,578.06a34.2,34.2 0 0 0 64.59,-14a33.76,33.76 0 0 0 -2.23,-13.88a34.26,34.26 0 0 0 -7.5,6.69c-3.25,4 -5.4,8.46 -9.16,12.16c-7,6.86 -18.29,9.7 -28.34,10a146.77,146.77 0 0 1 -17.36,-0.97z"/>
  <polygon id="svg_23" fill="#ffbb33" points="431.22 663.95 299.22 690.95 296.22 690.65 180.22 678.95 180.22 531.95 322.22 507.95 425.22 519.95 425.25 520.6 425.26 520.92 431.22 663.95"/>
  <polygon id="svg_24" opacity="0.1" points="431.22 663.95 299.22 690.95 296.22 690.65 296.22 539.95 425.25 520.6 431.22 663.95"/>
  <polygon id="svg_25" opacity="0.05" points="425.26 520.92 425.22 520.95 296.22 539.95 180.22 531.95 322.22 507.95 425.22 519.95 425.25 520.6 425.26 520.92"/>
  <polygon id="svg_26" fill="#3f3d56" points="576.22 669.95 444.22 696.95 441.22 696.65 325.22 684.95 325.22 537.95 467.22 513.95 570.22 525.95 570.25 526.6 570.26 526.92 576.22 669.95"/>
  <polygon id="svg_27" opacity="0.1" points="576.22 669.95 444.22 696.95 441.22 696.65 441.22 545.95 570.25 526.6 576.22 669.95"/>
  <polygon id="svg_28" opacity="0.05" points="570.26 526.92 570.22 526.95 441.22 545.95 325.22 537.95 467.22 513.95 570.22 525.95 570.25 526.6 570.26 526.92"/>
  <polygon id="svg_29" fill="#3f3d56" points="485.22 525.95 353.22 552.95 350.22 552.65 234.22 540.95 234.22 393.95 376.22 369.95 479.22 381.95 479.25 382.6 479.26 382.92 485.22 525.95"/>
  <polygon id="svg_30" opacity="0.1" points="485.22 525.95 353.22 552.95 350.22 552.65 350.22 401.95 479.25 382.6 485.22 525.95"/>
  <polygon id="svg_31" opacity="0.05" points="479.26 382.92 479.22 382.95 350.22 401.95 234.22 393.95 376.22 369.95 479.22 381.95 479.25 382.6 479.26 382.92"/>
  <polygon id="svg_32" fill="#3f3d56" points="560.22 532.11 491.33 546.21 489.76 546.05 429.22 539.94 429.22 463.22 503.33 450.69 557.09 456.96 557.11 457.3 557.11 457.46 560.22 532.11"/>
  <polygon id="svg_33" opacity="0.1" points="560.22 532.11 491.33 546.21 489.76 546.05 489.76 467.4 557.11 457.3 560.22 532.11"/>
  <polygon id="svg_34" opacity="0.05" points="557.11 457.46 557.09 457.48 489.76 467.4 429.22 463.22 503.33 450.69 557.09 456.96 557.11 457.3 557.11 457.46"/>
  <polygon id="svg_35" fill="#3f3d56" points="375.22 383.11 306.33 397.2 304.76 397.05 244.22 390.94 244.22 314.22 318.33 301.69 372.09 307.96 372.11 308.3 372.11 308.46 375.22 383.11"/>
  <polygon id="svg_36" opacity="0.1" points="375.22 383.11 306.33 397.2 304.76 397.05 304.76 318.4 372.11 308.3 375.22 383.11"/>
  <polygon id="svg_37" opacity="0.05" points="372.11 308.46 372.09 308.48 304.76 318.4 244.22 314.22 318.33 301.69 372.09 307.96 372.11 308.3 372.11 308.46"/>
  <polygon id="svg_38" fill="#ffbb33" points="496.22 380.11 427.33 394.2 425.76 394.05 365.22 387.94 365.22 311.22 439.33 298.69 493.09 304.96 493.11 305.3 493.11 305.46 496.22 380.11"/>
  <polygon id="svg_39" opacity="0.1" points="496.22 380.11 427.33 394.2 425.76 394.05 425.76 315.4 493.11 305.3 496.22 380.11"/>
  <polygon id="svg_40" opacity="0.05" points="493.11 305.46 493.09 305.48 425.76 315.4 365.22 311.22 439.33 298.69 493.09 304.96 493.11 305.3 493.11 305.46"/>
  <polygon id="svg_41" fill="#3f3d56" points="532.22 303.11 463.33 317.2 461.76 317.05 401.22 310.94 401.22 234.22 475.33 221.69 529.09 227.96 529.11 228.3 529.11 228.46 532.22 303.11"/>
  <polygon id="svg_42" opacity="0.1" points="532.22 303.11 463.33 317.2 461.76 317.05 461.76 238.4 529.11 228.3 532.22 303.11"/>
  <polygon id="svg_43" opacity="0.05" points="529.11 228.46 529.09 228.48 461.76 238.4 401.22 234.22 475.33 221.69 529.09 227.96 529.11 228.3 529.11 228.46"/>
  <path id="svg_44" fill="#ffc0c6" d="m579.14,146.27c-0.73,6.5 -5.69,11.74 -7.53,18c-2.76,9.45 2,19.6 8.56,27a59.77,59.77 0 0 0 41.62,19.74a17.91,17.91 0 0 0 6.88,-0.75a14.94,14.94 0 0 0 5.23,-3.58c4.92,-4.95 7.57,-11.8 8.62,-18.71s0.65,-13.94 0.24,-20.91a11.83,11.83 0 0 0 -0.78,-4.22a10.72,10.72 0 0 0 -2.71,-3.33a63,63 0 0 0 -11.65,-8.47c-1.8,-1 -3.73,-2 -4.88,-3.73a12.21,12.21 0 0 1 -1.51,-4.47l-1.29,-6.56a12.86,12.86 0 0 0 -1.89,-5.32c-2.27,-3.06 -6.62,-3.48 -10.43,-3.63l-14,-0.55c-4.35,-0.17 -10.07,-1.42 -14.32,-0.56c-4,0.79 -2.65,4.45 -1.93,7.77a56.18,56.18 0 0 1 1.77,12.28z"/>
  <path id="svg_45" opacity="0.1" d="m579.14,146.27c-0.73,6.5 -5.69,11.74 -7.53,18c-2.76,9.45 2,19.6 8.56,27a59.77,59.77 0 0 0 41.62,19.74a17.91,17.91 0 0 0 6.88,-0.75a14.94,14.94 0 0 0 5.23,-3.58c4.92,-4.95 7.57,-11.8 8.62,-18.71s0.65,-13.94 0.24,-20.91a11.83,11.83 0 0 0 -0.78,-4.22a10.72,10.72 0 0 0 -2.71,-3.33a63,63 0 0 0 -11.65,-8.47c-1.8,-1 -3.73,-2 -4.88,-3.73a12.21,12.21 0 0 1 -1.51,-4.47l-1.29,-6.56a12.86,12.86 0 0 0 -1.89,-5.32c-2.27,-3.06 -6.62,-3.48 -10.43,-3.63l-14,-0.55c-4.35,-0.17 -10.07,-1.42 -14.32,-0.56c-4,0.79 -2.65,4.45 -1.93,7.77a56.18,56.18 0 0 1 1.77,12.28z"/>
  <path id="svg_46" fill="#605d82" d="m668.05,439.03l-5.94,65.12c-1.55,17.08 -3.13,34.23 -6.17,51.09c-1,5.81 -2.28,11.59 -3.74,17.32c-4.06,15.91 -9.95,31.46 -11.85,47.77c-0.06,0.47 -0.11,1 -0.16,1.43c-0.39,3.6 -0.73,7.24 -2,10.6c-1,2.49 -2.41,4.76 -3.44,7.22c-2,4.92 -2.32,10.36 -2.57,15.69a67.64,67.64 0 0 0 -23.29,-8c-4,-0.59 -8.35,-1 -11,-4c-3,-3.26 -2.65,-8.25 -2.15,-12.63q2.36,-20.4 4.7,-40.78a106.28,106.28 0 0 1 3,-17.32c0.54,-1.89 1.19,-3.75 1.85,-5.61c0.91,-2.56 1.83,-5.12 2.52,-7.75a93.33,93.33 0 0 0 1.98,-12.83c1.61,-13.68 3.55,-27.33 5.25,-41l0.09,-0.72c2.55,-20.72 4.49,-41.54 3.93,-62.41c-0.08,-3.09 -0.21,-6.18 -0.41,-9.28c-0.28,-4.49 -0.69,-6.87 3,-9.68c4.11,-3.1 9.52,-5.27 14.22,-7.3c2.53,-1.1 30.39,-11 31,-8.82a54.29,54.29 0 0 1 2,14.22a158.22,158.22 0 0 1 -0.82,17.67z"/>
  <path id="svg_47" opacity="0.1" d="m655.94,555.24c-1,5.81 -2.28,11.59 -3.74,17.32c-4.06,15.91 -9.95,31.46 -11.85,47.77c-0.06,0.47 -0.11,1 -0.16,1.43c-12.42,-17.74 -22.88,-36.82 -35,-54.75c0.91,-2.56 1.83,-5.12 2.52,-7.75a93.33,93.33 0 0 0 2.08,-12.91c1.61,-13.68 3.55,-27.33 5.25,-41l0.09,-0.72a42.47,42.47 0 0 0 3,8.41c8.14,16.54 27.48,24.9 36.94,40.73q0.47,0.74 0.87,1.47z"/>
  <path id="svg_48" fill="#605d82" d="m555.16,409.82c0.41,13.26 2.53,26.41 4.65,39.51l4.37,27c2.39,14.8 4.89,29.89 11.89,43.14c5.24,9.92 12.78,18.38 19.61,27.27c16.78,21.86 29.39,46.63 45.3,69.13c4.63,6.54 11.24,13.62 19.13,12.25c5.18,-0.89 8.94,-5.21 13,-8.53c4.8,-3.92 10.58,-6.79 14.36,-11.71s4.52,-13.08 -0.6,-16.58c-1.75,-1.19 -3.88,-1.64 -5.86,-2.4c-7.93,-3 -13.07,-10.76 -16.33,-18.6s-5.25,-16.25 -9.6,-23.54c-9.46,-15.83 -28.81,-24.19 -36.95,-40.74c-4.56,-9.26 -5,-20 -5.34,-30.27l-0.89,-26.31c-0.1,-2.88 -0.17,-5.87 1,-8.5c3.11,-7 12.51,-7.66 20.13,-8.55a68.75,68.75 0 0 0 24.67,-7.78c4.39,-2.37 8.67,-5.39 11,-9.79c2.14,-4 2.43,-8.71 2.68,-13.25l2.64,-47.69c0.23,-4.1 0.43,-8.35 -1,-12.19c-3.63,-9.66 -15.83,-12.82 -26.14,-12.36c-19.18,0.86 -36.88,9.11 -55,14.69c-4.49,1.38 -9,2.62 -13.63,3.55c-4,0.81 -9,0.48 -12.84,1.78c-6.88,2.32 -6.71,17.38 -7.68,23.62a198.29,198.29 0 0 0 -2.57,36.85z"/>
  <path id="svg_49" fill="#535070" d="m657.51,630.14c1.69,1.71 2.24,4.21 2.68,6.57a224.15,224.15 0 0 1 3.8,39.71a6.58,6.58 0 0 0 0.71,3.6a4.59,4.59 0 0 0 1.87,1.5c4.89,2.33 10.56,-0.92 14.64,-4.49c7.55,-6.61 13.94,-15.49 14.37,-25.52c0.11,-2.58 -0.18,-5.19 0.27,-7.74c0.66,-3.78 2.87,-7.07 4.81,-10.37a88.05,88.05 0 0 0 8,-17.82c0.74,-2.34 1.24,-5.28 -0.6,-6.91a6.43,6.43 0 0 0 -2.17,-1.13l-22.1,-8.2c-1.92,-0.71 -6.68,11.52 -7.43,12.86c-1.85,3.27 -3.69,5.12 -7.4,5.88s-8.29,-0.34 -11.83,1.55c-6,3.19 -3.01,7.1 0.38,10.51z"/>
  <path id="svg_50" fill="#535070" d="m623.43,637.69a6.73,6.73 0 0 0 -1.68,-2.13a7.53,7.53 0 0 0 -3.39,-1.15c-4.2,-0.72 -9.18,-1.19 -12.09,1.94c-2.72,2.93 -2.25,7.7 -4.52,11c-0.72,1 -1.7,1.9 -2.32,3a11.26,11.26 0 0 0 -1,5.38c-0.12,5.09 -0.24,10.2 0.12,15.28c0.29,4.26 1,8.73 3.67,12.07c4.28,5.36 12,6.13 18.84,6.47l5.55,0.29a11,11 0 0 0 4.54,-0.42a7.45,7.45 0 0 0 3.92,-4.31c2.89,-7.18 -1.68,-14.91 -4.5,-22.11c-3.25,-8.29 -2.67,-17.48 -7.14,-25.31z"/>
  <path id="svg_51" fill="#3f3d56" d="m577.54,109.62a4.53,4.53 0 0 1 0.31,-2.14c0.81,-1.43 2.93,-1 4.53,-0.64c6.43,1.62 13.21,0.15 19.84,0.53s14.09,3.69 15.42,10.19a48.21,48.21 0 0 0 12.23,-12.56c1.84,-2.75 3.44,-5.9 3.19,-9.2c-0.36,-4.76 -4.35,-8.32 -8,-11.34l-11,-9a16.71,16.71 0 0 0 -4.94,-3.14c-2.54,-0.87 -5.32,-0.45 -8,-0.45c-8,0 -16.58,-3.65 -23.71,0c-3,1.53 -5.23,4.16 -7.39,6.72l-9.83,11.64a6.21,6.21 0 0 0 -1.58,2.67c-0.28,1.42 0.45,2.82 0.71,4.25c0.46,2.6 -0.66,5.38 0.2,7.88c1.43,4.14 6.47,4.73 9.55,7.11c1.14,0.88 2.94,3.89 4.31,3.85c2.41,-0.05 4.09,-4.45 4.16,-6.37z"/>
  <circle id="svg_52" fill="#ffc0c6" r="31.5" cy="112.45" cx="594.22"/>
  <path id="svg_53" fill="#3f3d56" d="m601.6,181.38a15.26,15.26 0 0 0 -14.81,-10.22a4.45,4.45 0 0 1 -2.74,-0.35a3.79,3.79 0 0 1 -1.13,-1.4a55.73,55.73 0 0 1 -4.59,-10.86c-0.5,-1.67 -1.19,-3.64 -2.88,-4.07c-1.36,-0.35 -2.75,0.53 -3.66,1.6a35,35 0 0 1 -2.62,3.29c-4,3.54 -11,0.31 -15.19,3.56c-0.69,0.53 -1.26,1.21 -2,1.7a9.1,9.1 0 0 1 -2.31,1a221.38,221.38 0 0 0 -23.88,9.33c2.8,16.84 5.66,34 12.22,49.75c3.12,7.5 6.65,14.85 9.15,22.58c5.54,17.13 5.78,35.46 5.85,53.47c0,12.32 0,24.9 -4,36.56c-0.9,2.64 -2,5.26 -2.25,8s0.57,5.84 2.82,7.48a9.51,9.51 0 0 0 4.35,1.53c6.91,1 13.87,-0.82 20.67,-2.4c18.23,-4.22 36.83,-6.64 55.38,-9l31.1,-4a18.19,18.19 0 0 0 6.44,-1.67c5.69,-3.11 6.23,-11.67 2.69,-17.11c-1.69,-2.61 -4.08,-4.75 -5.51,-7.51s-1.54,-6.64 0.91,-8.55c5,-3.9 3.5,-11.13 3.74,-17.45q1,-26.52 -0.27,-53a103.72,103.72 0 0 1 -0.18,-11c0.35,-6.22 1.89,-12.31 3.43,-18.36l9.45,-37.2c-2.47,-3.9 -7.2,-6.38 -11.67,-7.5s-9.14,-1.45 -13.55,-2.82c-9,-2.8 -17.08,-9.9 -26.51,-9.24a4.85,4.85 0 0 0 -2.06,0.5c-2.12,1.21 -1.79,4.27 -1.92,6.71c-0.3,5.41 -4.28,9.92 -8.66,13.09s-9.4,5.47 -13.43,9.08a6,6 0 0 0 -2.38,4.48z"/>
  <path id="svg_54" fill="#ffc0c6" d="m476.79,216.67a37,37 0 0 1 -6.62,3.41c-2.2,0.87 -4.55,1.56 -6.35,3.08a10.05,10.05 0 0 0 -2.21,2.73a12.13,12.13 0 0 0 11.18,18.07c2.89,-0.15 5.62,-1.32 8.27,-2.47l22.22,-9.67c3.76,-1.63 7.82,-3.53 9.6,-7.23a1.74,1.74 0 0 0 0.22,-1.15a1.89,1.89 0 0 0 -0.92,-1a49.77,49.77 0 0 1 -12.93,-12.2c-0.91,-1.24 -2,-4.16 -3.32,-4.91c-4.7,-2.61 -15.37,8.9 -19.14,11.34z"/>
  <path id="svg_55" fill="#ffc0c6" d="m714.31,208.82l8.19,9.36c1.76,2 3.52,4 5.12,6.16a71.67,71.67 0 0 1 9.38,17.67c1.78,4.67 3.26,9.65 2.64,14.61a36,36 0 0 1 -2.05,7.43a91.86,91.86 0 0 1 -5.57,13.4a76.26,76.26 0 0 1 -6.23,9.37a219.1,219.1 0 0 1 -20.77,23.75c-2.8,2.77 -4,7.26 -5.19,11c-2.25,6.91 -7.6,12.3 -12.77,17.4a35.19,35.19 0 0 1 -5.49,4.72a17.8,17.8 0 0 1 -10,2.84a11,11 0 0 1 -4.49,-0.93c-3.54,-1.68 -5.34,-5.77 -5.71,-9.67a20.7,20.7 0 0 1 1.72,-10.36c4.7,-10.41 16.77,-14.92 25.3,-22.52c5,-4.45 8.83,-10.05 12.61,-15.58a54.05,54.05 0 0 0 6.37,-11.17c1.9,-5.09 1.16,-11.11 2.83,-16.27c0.7,-2.19 2,-4.16 2.71,-6.33s0.95,-4.74 -0.38,-6.61a9.55,9.55 0 0 0 -3.71,-2.72c-5.45,-2.76 -11.55,-6.32 -12.59,-12.35a13.22,13.22 0 0 1 2.44,-9.43a39,39 0 0 1 6.87,-7.2c2.37,-2.14 6.38,-4.51 8.77,-6.57z"/>
  <path id="svg_56" fill="#ffc0c6" d="m471.53,229.73c-1.44,-2.92 -3.25,-5.9 -6.17,-7.35a11.36,11.36 0 0 0 -9,0a34.12,34.12 0 0 0 -7.88,4.76l-7.06,5.21a17.37,17.37 0 0 0 -4.19,3.87a16.11,16.11 0 0 0 -2.18,6c-1,4.87 -1.81,9.88 -1.11,14.81c1.12,8 5.92,14.92 11.2,21c3.3,3.78 7.38,7.6 12.4,7.77c2.17,0.07 4.58,-0.79 5.48,-2.76a6.83,6.83 0 0 0 0.49,-2.46c0.54,-8.88 -2.64,-17.55 -6.34,-25.64c-1,-2.2 -2.08,-4.48 -2,-6.89a1.86,1.86 0 0 1 0.3,-1.16a1.94,1.94 0 0 1 1.2,-0.59c5.07,-1 13.81,2.94 17.36,-2.69c2.3,-3.72 -0.86,-10.57 -2.5,-13.88z"/>
  <path id="svg_57" fill="#3f3d56" d="m575.88,99.71a4.66,4.66 0 0 1 0.32,-2.14c0.81,-1.44 2.93,-1 4.53,-0.64c6.43,1.62 13.21,0.15 19.84,0.53s14.08,3.69 15.42,10.19a48.53,48.53 0 0 0 12.23,-12.56c1.84,-2.76 3.44,-5.91 3.19,-9.21c-0.36,-4.76 -4.36,-8.32 -8,-11.33l-11,-9a16.66,16.66 0 0 0 -4.93,-3.14c-2.55,-0.87 -5.32,-0.45 -8,-0.45c-8,0 -16.58,-3.65 -23.71,0c-3,1.53 -5.23,4.16 -7.39,6.72l-9.84,11.64a6.23,6.23 0 0 0 -1.57,2.67c-0.28,1.42 0.45,2.82 0.71,4.25c0.46,2.6 -0.66,5.38 0.2,7.87c1.43,4.15 6.47,4.74 9.55,7.12c1.14,0.88 2.94,3.89 4.31,3.85c2.37,-0.05 4.05,-4.45 4.14,-6.37z"/>
  <path id="svg_58" fill="#3f3d56" d="m508.98,186.03a13.06,13.06 0 0 0 -3.3,3.07c-1.15,1.75 -1.39,4 -2.38,5.8c-2.12,3.94 -7.09,5.35 -10.18,8.58a3.19,3.19 0 0 0 -1,1.68a3.71,3.71 0 0 0 0.83,2.42l14.94,23.48c5,0.44 9.74,-2.68 14.72,-2.26c1.85,0.15 3.76,0.79 5.54,0.24a16.1,16.1 0 0 0 3.55,-2.17c3,-1.88 6.92,-2.1 9.41,-4.57s2.7,-6.1 2.67,-9.47a37.37,37.37 0 0 0 -0.89,-8.7c-2.2,-9 -9.09,-15.94 -13.41,-23.92c-2.11,-3.89 -3.25,-6.16 -7.7,-3.49s-8.59,6.23 -12.8,9.31z"/>
  <path id="svg_59" fill="#3f3d56" d="m690.39,174.16a35.07,35.07 0 0 1 7.52,6.58c2.27,2.93 3.56,6.53 5.75,9.53s5,5.16 7.4,7.84c3.65,4.06 6.12,9 8.54,13.91a208.6,208.6 0 0 1 -19.32,21.8a6.19,6.19 0 0 1 -2.94,1.92a4.71,4.71 0 0 1 -4.14,-1.69c-1.08,-1.12 -1.84,-2.52 -2.87,-3.69a14.75,14.75 0 0 0 -9.13,-4.41a62.72,62.72 0 0 0 -10.35,-0.15a4,4 0 0 1 -2.21,-0.37a3.65,3.65 0 0 1 -1.2,-1.38c-4,-6.88 -2.75,-15.52 -1.32,-23.38l3.27,-18a40.44,40.44 0 0 1 2.73,-10c1.24,-2.65 4,-7.15 7.42,-6.35s7.96,5.76 10.85,7.84z"/>
  <polygon id="svg_60" fill="#ffbb33" points="405.22 306.11 336.33 320.2 334.76 320.05 274.22 313.94 274.22 237.22 348.33 224.69 402.09 230.96 402.11 231.3 402.11 231.46 405.22 306.11"/>
  <polygon id="svg_61" opacity="0.1" points="405.22 306.11 336.33 320.2 334.76 320.05 334.76 241.4 402.11 231.3 405.22 306.11"/>
  <polygon id="svg_62" opacity="0.05" points="402.11 231.46 402.09 231.48 334.76 241.4 274.22 237.22 348.33 224.69 402.09 230.96 402.11 231.3 402.11 231.46"/>
  <polygon id="svg_63" fill="#3f3d56" points="441.22 230.11 372.33 244.21 370.76 244.05 310.22 237.94 310.22 161.22 384.33 148.69 438.09 154.96 438.11 155.3 438.11 155.46 441.22 230.11"/>
  <polygon id="svg_64" opacity="0.1" points="441.22 230.11 372.33 244.21 370.76 244.05 370.76 165.4 438.11 155.3 441.22 230.11"/>
  <polygon id="svg_65" opacity="0.05" points="438.11 155.46 438.09 155.48 370.76 165.4 310.22 161.22 384.33 148.69 438.09 154.96 438.11 155.3 438.11 155.46"/>
  <style transform="matrix(0.12941234510447064,0,0,0.12941234510447064,0,0) " type="text/css">.st0{fill:#001652;}
	.st1{fill-rule:evenodd;clip-rule:evenodd;fill:#001652;}
	.st2{fill-rule:evenodd;clip-rule:evenodd;fill:#FEBE10;}</style>
  <g stroke="null" id="svg_76">
   <polygon stroke="null" id="svg_70" points="274.7127380371094,53.467390060424805 261.8717346191406,119.86236381530762 292.72998046875,119.86236381530762 295.7659606933594,103.28852653503418 281.8300476074219,103.28852653503418 291.5355224609375,53.467390060424805 " class="st0"/>
   <g stroke="null" transform="matrix(0.497714134693418,0,0,0.497714134693418,-253.17038942246836,-384.97876773327516) " id="svg_71">
    <path stroke="null" id="svg_72" d="m1174.91509,910.41964c5.6,0 13.5,1.4 18.4,3l5.8,-30.6c-7.1,-1.2 -14.7,-2 -23.2,-2c-36.9,0 -54.2,22 -54.2,46.7c0,32.2 32.8,31.8 32.8,45.5c0,6.9 -4.9,10.7 -15.4,10.7c-7.1,0 -17.3,-1.7 -23.2,-3.9l-6.3,33c6.8,1.3 16.4,2.2 26.2,2.2c32.8,0 56,-21.9 56,-48.4c0,-31.3 -33,-31.8 -33,-45.7c0.1,-6.1 4.2,-10.5 16.1,-10.5" class="st1"/>
   </g>
   <g stroke="null" transform="matrix(0.497714134693418,0,0,0.497714134693418,-253.17038942246836,-384.97876773327516) " id="svg_73">
    <path stroke="null" id="svg_74" d="m1008.11509,880.91964c-50.8,0 -83.3,37.9 -83.3,84.5c0,29.1 15.4,49.3 54,49.3c15.4,0 31.5,-2.7 44.5,-8.3l12.4,-64.5l-34,0l-7.3,39.3c-3,0.8 -6.6,1 -9.3,1c-17.1,0 -23.2,-9.5 -23.2,-21.8c0,-23.2 14.2,-47.2 43.2,-47.2c8.1,0 17.1,1.5 25.1,4.1c0.8,0.2 1.7,0.5 2.6,0.7c2.9,1 5.2,2.2 7.1,3l6.8,-34.9c-11.7,-3.2 -25.8,-5.2 -38.6,-5.2" class="st1"/>
    <path stroke="null" id="svg_75" d="m753.41509,881.21964l-9.1,44.4l63,0c-52.3,77.2 -155.8,64.2 -183.2,32.2c-23.5,-27.6 -3.2,-74.9 66.7,-104.2c-69.3,21 -108,76.4 -85.2,113.6c25.9,42.2 106.5,59.8 178.1,39.3c47.9,-16.9 68.2,-40.5 75.8,-53.2l-11.8,61.3l47.1,0l25.6,-133.4l-167,0z" class="st2"/>
   </g>
  </g>
 </g>
</svg>